<?xml version="1.0" encoding="iso-8859-1"?>
<!-- Generator: Adobe Illustrator 15.0.0, SVG Export Plug-In . SVG Version: 6.00 Build 0)  -->
<!DOCTYPE svg PUBLIC "-//W3C//DTD SVG 1.1//EN" "http://www.w3.org/Graphics/SVG/1.1/DTD/svg11.dtd">
<svg version="1.1" id="Layer_1" xmlns="http://www.w3.org/2000/svg" xmlns:xlink="http://www.w3.org/1999/xlink" x="0px" y="0px"
	 width="206px" height="392.294px" viewBox="0 0 206 392.294" enable-background="new 0 0 206 392.294" xml:space="preserve">
<g>
	<rect x="133.576" y="186.29" fill="#51DBFC" stroke="#231F20" stroke-miterlimit="10" width="15.272" height="56.578"/>
	<rect x="133.576" y="289.121" fill="#51DBFC" stroke="#231F20" stroke-miterlimit="10" width="15.272" height="76.227"/>
	<rect x="133.576" y="257.35" fill="#51DBFC" stroke="#231F20" stroke-miterlimit="10" width="15.272" height="22.728"/>
	<rect x="133.576" y="6.908" fill="#51DBFC" stroke="#231F20" stroke-miterlimit="10" width="15.272" height="36.86"/>
	<rect x="133.576" y="60.829" fill="#51DBFC" stroke="#231F20" stroke-miterlimit="10" width="15.272" height="114.811"/>
</g>
<g>
	<rect x="113.545" y="380.96" fill="none" width="55.334" height="11.334"/>
	<path d="M117.667,385.313v-0.84l3.032-0.005v2.656c-0.465,0.371-0.945,0.65-1.44,0.838c-0.495,0.187-1.003,0.28-1.523,0.28
		c-0.703,0-1.342-0.15-1.917-0.452c-0.574-0.301-1.008-0.736-1.301-1.306s-0.439-1.206-0.439-1.909c0-0.697,0.146-1.347,0.438-1.951
		c0.291-0.604,0.71-1.052,1.257-1.345s1.177-0.439,1.89-0.439c0.518,0,0.985,0.084,1.404,0.251c0.418,0.168,0.746,0.402,0.983,0.701
		s0.419,0.689,0.542,1.172l-0.854,0.234c-0.107-0.365-0.241-0.65-0.4-0.859s-0.388-0.375-0.684-0.5
		c-0.296-0.126-0.625-0.188-0.986-0.188c-0.433,0-0.808,0.065-1.123,0.198c-0.315,0.131-0.57,0.305-0.765,0.52
		c-0.193,0.215-0.344,0.451-0.451,0.708c-0.182,0.442-0.273,0.923-0.273,1.44c0,0.639,0.109,1.172,0.33,1.602
		c0.219,0.43,0.539,0.748,0.959,0.957s0.865,0.313,1.338,0.313c0.41,0,0.811-0.079,1.201-0.236c0.391-0.158,0.688-0.326,0.889-0.506
		v-1.333H117.667z"/>
	<path d="M125.533,386.451l0.908,0.112c-0.143,0.53-0.408,0.942-0.796,1.235s-0.882,0.439-1.484,0.439
		c-0.759,0-1.36-0.233-1.804-0.701c-0.445-0.467-0.667-1.121-0.667-1.965c0-0.873,0.225-1.549,0.674-2.031s1.032-0.723,1.748-0.723
		c0.693,0,1.26,0.236,1.699,0.708s0.659,1.136,0.659,1.992c0,0.052-0.002,0.13-0.005,0.234h-3.867
		c0.032,0.569,0.194,1.006,0.483,1.309s0.65,0.454,1.084,0.454c0.322,0,0.598-0.084,0.825-0.254S125.4,386.822,125.533,386.451z
		 M122.647,385.03h2.896c-0.039-0.437-0.15-0.763-0.332-0.981c-0.279-0.338-0.643-0.508-1.089-0.508
		c-0.403,0-0.743,0.135-1.019,0.405C122.829,384.216,122.676,384.578,122.647,385.03z"/>
	<path d="M127.544,388.121v-5.186h0.791v0.737c0.381-0.569,0.932-0.854,1.65-0.854c0.313,0,0.6,0.057,0.861,0.168
		c0.263,0.113,0.459,0.26,0.589,0.442s0.222,0.399,0.273,0.649c0.032,0.162,0.049,0.447,0.049,0.854v3.188h-0.879v-3.154
		c0-0.357-0.034-0.626-0.103-0.803c-0.068-0.178-0.189-0.319-0.363-0.426c-0.175-0.105-0.379-0.158-0.613-0.158
		c-0.375,0-0.697,0.119-0.969,0.356c-0.272,0.237-0.408,0.688-0.408,1.353v2.832H127.544z"/>
	<path d="M132.779,385.528c0-0.96,0.268-1.671,0.801-2.134c0.445-0.385,0.99-0.576,1.631-0.576c0.713,0,1.295,0.233,1.748,0.701
		c0.453,0.467,0.679,1.111,0.679,1.936c0,0.668-0.101,1.192-0.3,1.574c-0.201,0.383-0.492,0.68-0.875,0.892
		c-0.382,0.212-0.799,0.317-1.252,0.317c-0.727,0-1.313-0.232-1.76-0.698C133.002,387.074,132.779,386.404,132.779,385.528z
		 M133.682,385.528c0,0.664,0.146,1.161,0.435,1.491c0.289,0.331,0.654,0.496,1.094,0.496c0.436,0,0.799-0.166,1.089-0.498
		s0.435-0.838,0.435-1.519c0-0.642-0.146-1.127-0.438-1.458c-0.291-0.33-0.652-0.495-1.086-0.495c-0.439,0-0.805,0.165-1.094,0.493
		S133.682,384.864,133.682,385.528z"/>
	<path d="M138.667,388.121v-5.186h0.786v0.728c0.163-0.254,0.38-0.458,0.649-0.612c0.27-0.155,0.578-0.232,0.923-0.232
		c0.384,0,0.699,0.08,0.944,0.239c0.246,0.159,0.42,0.382,0.521,0.669c0.41-0.605,0.944-0.908,1.602-0.908
		c0.515,0,0.909,0.143,1.187,0.428c0.277,0.284,0.415,0.723,0.415,1.315v3.56h-0.874v-3.267c0-0.352-0.028-0.604-0.086-0.759
		c-0.057-0.155-0.16-0.279-0.31-0.374s-0.325-0.142-0.527-0.142c-0.364,0-0.667,0.121-0.908,0.363
		c-0.241,0.243-0.361,0.631-0.361,1.165v3.013h-0.879v-3.369c0-0.391-0.071-0.684-0.215-0.879s-0.378-0.293-0.703-0.293
		c-0.247,0-0.476,0.064-0.687,0.195c-0.209,0.131-0.361,0.32-0.456,0.571s-0.142,0.612-0.142,1.084v2.69H138.667z"/>
	<path d="M150.547,386.451l0.908,0.112c-0.144,0.53-0.409,0.942-0.796,1.235s-0.883,0.439-1.484,0.439
		c-0.758,0-1.359-0.233-1.805-0.701c-0.443-0.467-0.666-1.121-0.666-1.965c0-0.873,0.225-1.549,0.674-2.031s1.031-0.723,1.748-0.723
		c0.693,0,1.26,0.236,1.699,0.708s0.659,1.136,0.659,1.992c0,0.052-0.001,0.13-0.005,0.234h-3.867
		c0.033,0.569,0.193,1.006,0.483,1.309s0.651,0.454,1.084,0.454c0.322,0,0.597-0.084,0.825-0.254S150.414,386.822,150.547,386.451z
		 M147.662,385.03h2.896c-0.039-0.437-0.149-0.763-0.332-0.981c-0.28-0.338-0.644-0.508-1.089-0.508
		c-0.404,0-0.743,0.135-1.018,0.405C147.843,384.216,147.691,384.578,147.662,385.03z"/>
	<path d="M155.411,388.121v-7.158h2.686c0.547,0,0.985,0.072,1.315,0.217c0.331,0.146,0.59,0.368,0.777,0.67
		c0.187,0.301,0.28,0.615,0.28,0.944c0,0.306-0.083,0.595-0.249,0.864s-0.416,0.488-0.752,0.654
		c0.434,0.127,0.766,0.344,0.998,0.649c0.233,0.306,0.35,0.667,0.35,1.084c0,0.335-0.07,0.647-0.213,0.935
		c-0.141,0.289-0.316,0.511-0.524,0.667s-0.47,0.274-0.784,0.354c-0.313,0.079-0.699,0.119-1.154,0.119H155.411z M156.358,383.97
		h1.548c0.42,0,0.721-0.027,0.903-0.083c0.241-0.071,0.423-0.19,0.544-0.356c0.123-0.166,0.184-0.375,0.184-0.625
		c0-0.238-0.057-0.447-0.171-0.627c-0.114-0.182-0.276-0.305-0.488-0.371c-0.212-0.067-0.575-0.101-1.089-0.101h-1.431V383.97z
		 M156.358,387.276h1.782c0.307,0,0.521-0.011,0.645-0.034c0.219-0.039,0.4-0.104,0.547-0.195s0.268-0.224,0.361-0.398
		c0.094-0.174,0.142-0.375,0.142-0.603c0-0.267-0.068-0.499-0.205-0.696c-0.137-0.196-0.326-0.335-0.569-0.414
		c-0.242-0.08-0.592-0.12-1.047-0.12h-1.655V387.276z"/>
</g>
<g>
	<rect x="64.069" y="127.106" fill="#7EFC03" stroke="#231F20" stroke-miterlimit="10" width="15.273" height="80.05"/>
	<rect x="64.069" y="332.357" fill="#7EFC03" stroke="#231F20" stroke-miterlimit="10" width="15.273" height="30.875"/>
	<rect x="64.069" y="221.883" fill="#7EFC03" stroke="#231F20" stroke-miterlimit="10" width="15.273" height="98.341"/>
	<rect x="64.069" y="6.597" fill="#7EFC03" stroke="#231F20" stroke-miterlimit="10" width="15.273" height="108.406"/>
</g>
<g>
	<rect x="44.039" y="380.96" fill="none" width="55.333" height="11.334"/>
	<path d="M48.16,385.314v-0.84l3.032-0.006v2.656c-0.465,0.371-0.946,0.65-1.44,0.838s-1.002,0.281-1.523,0.281
		c-0.703,0-1.342-0.15-1.917-0.452s-1.008-0.736-1.301-1.306c-0.293-0.57-0.439-1.207-0.439-1.91c0-0.696,0.146-1.346,0.437-1.95
		s0.71-1.052,1.257-1.345s1.177-0.439,1.89-0.439c0.518,0,0.985,0.084,1.404,0.251s0.746,0.401,0.984,0.7
		c0.238,0.3,0.418,0.69,0.542,1.172l-0.854,0.234c-0.107-0.364-0.241-0.65-0.4-0.859c-0.16-0.208-0.387-0.375-0.684-0.5
		s-0.625-0.188-0.986-0.188c-0.433,0-0.807,0.065-1.123,0.197s-0.57,0.305-0.764,0.52s-0.344,0.451-0.452,0.709
		c-0.182,0.442-0.273,0.922-0.273,1.439c0,0.639,0.11,1.172,0.33,1.602s0.54,0.749,0.959,0.957c0.42,0.209,0.866,0.313,1.338,0.313
		c0.41,0,0.811-0.078,1.201-0.236s0.687-0.326,0.889-0.506v-1.332H48.16z"/>
	<path d="M56.026,386.451l0.908,0.113c-0.143,0.53-0.409,0.941-0.796,1.234s-0.882,0.439-1.484,0.439c-0.758,0-1.36-0.232-1.804-0.7
		s-0.667-1.122-0.667-1.966c0-0.872,0.225-1.549,0.674-2.031c0.449-0.481,1.032-0.723,1.748-0.723c0.693,0,1.26,0.236,1.699,0.709
		c0.439,0.472,0.659,1.136,0.659,1.992c0,0.052-0.001,0.13-0.005,0.234h-3.867c0.033,0.569,0.194,1.006,0.483,1.309
		s0.651,0.453,1.084,0.453c0.322,0,0.597-0.084,0.825-0.254C55.712,387.092,55.893,386.822,56.026,386.451z M53.14,385.031h2.896
		c-0.039-0.437-0.15-0.764-0.332-0.982c-0.28-0.338-0.643-0.508-1.089-0.508c-0.404,0-0.743,0.136-1.018,0.406
		C53.322,384.216,53.169,384.578,53.14,385.031z"/>
	<path d="M58.038,388.121v-5.186h0.791v0.738c0.381-0.57,0.931-0.855,1.65-0.855c0.313,0,0.6,0.057,0.862,0.169
		s0.458,0.26,0.588,0.442c0.13,0.182,0.221,0.398,0.273,0.648c0.033,0.163,0.049,0.448,0.049,0.855v3.188h-0.879v-3.154
		c0-0.357-0.034-0.625-0.103-0.803s-0.189-0.318-0.364-0.425s-0.378-0.159-0.613-0.159c-0.375,0-0.697,0.119-0.969,0.357
		c-0.272,0.237-0.408,0.688-0.408,1.352v2.832H58.038z"/>
	<path d="M63.272,385.529c0-0.961,0.267-1.672,0.801-2.135c0.446-0.384,0.99-0.576,1.631-0.576c0.713,0,1.295,0.234,1.748,0.701
		s0.679,1.112,0.679,1.936c0,0.668-0.1,1.193-0.3,1.575s-0.492,0.68-0.874,0.892c-0.382,0.211-0.8,0.316-1.252,0.316
		c-0.726,0-1.313-0.232-1.76-0.697C63.496,387.075,63.272,386.404,63.272,385.529z M64.175,385.529c0,0.664,0.145,1.16,0.435,1.491
		s0.654,0.495,1.094,0.495c0.436,0,0.799-0.166,1.089-0.498s0.435-0.838,0.435-1.518c0-0.642-0.146-1.127-0.437-1.458
		s-0.653-0.495-1.086-0.495c-0.439,0-0.804,0.164-1.094,0.492C64.32,384.368,64.175,384.865,64.175,385.529z"/>
	<path d="M69.161,388.121v-5.186h0.786v0.729c0.163-0.254,0.379-0.459,0.649-0.613s0.578-0.232,0.923-0.232
		c0.384,0,0.699,0.08,0.945,0.24c0.246,0.159,0.419,0.382,0.52,0.668c0.41-0.605,0.944-0.908,1.602-0.908
		c0.514,0,0.91,0.143,1.187,0.428s0.415,0.724,0.415,1.316v3.559h-0.874v-3.266c0-0.352-0.028-0.605-0.085-0.76
		s-0.16-0.279-0.31-0.373c-0.15-0.095-0.326-0.143-0.527-0.143c-0.365,0-0.667,0.121-0.908,0.364s-0.361,0.631-0.361,1.165v3.012
		h-0.879v-3.369c0-0.391-0.072-0.684-0.215-0.879s-0.377-0.293-0.703-0.293c-0.248,0-0.476,0.065-0.686,0.195
		c-0.21,0.131-0.362,0.321-0.457,0.572c-0.094,0.25-0.142,0.611-0.142,1.084v2.689H69.161z"/>
	<path d="M81.041,386.451l0.908,0.113c-0.143,0.53-0.409,0.941-0.796,1.234s-0.882,0.439-1.484,0.439c-0.758,0-1.36-0.232-1.804-0.7
		s-0.667-1.122-0.667-1.966c0-0.872,0.225-1.549,0.674-2.031c0.449-0.481,1.032-0.723,1.748-0.723c0.693,0,1.26,0.236,1.699,0.709
		c0.439,0.472,0.659,1.136,0.659,1.992c0,0.052-0.001,0.13-0.005,0.234h-3.867c0.033,0.569,0.194,1.006,0.483,1.309
		s0.651,0.453,1.084,0.453c0.322,0,0.597-0.084,0.825-0.254C80.727,387.092,80.907,386.822,81.041,386.451z M78.155,385.031h2.896
		c-0.039-0.437-0.15-0.764-0.332-0.982c-0.28-0.338-0.643-0.508-1.089-0.508c-0.404,0-0.743,0.136-1.018,0.406
		C78.336,384.216,78.184,384.578,78.155,385.031z"/>
	<path d="M84.605,388.121l2.749-7.158h1.021l2.93,7.158h-1.079l-0.835-2.168h-2.993l-0.786,2.168H84.605z M86.67,385.181h2.427
		l-0.747-1.982c-0.228-0.602-0.397-1.097-0.508-1.484c-0.091,0.459-0.22,0.915-0.386,1.367L86.67,385.181z"/>
</g>
<g>
	<rect x="3.065" y="262.149" fill="none" width="52" height="19.334"/>
	<path d="M3.515,267.009l0.894-0.078c0.042,0.358,0.141,0.652,0.295,0.881s0.395,0.415,0.72,0.557s0.692,0.212,1.099,0.212
		c0.361,0,0.68-0.054,0.957-0.161s0.482-0.255,0.618-0.442s0.203-0.392,0.203-0.613c0-0.225-0.065-0.421-0.195-0.588
		s-0.345-0.309-0.645-0.422c-0.192-0.075-0.617-0.191-1.274-0.349s-1.118-0.307-1.382-0.447c-0.342-0.179-0.597-0.401-0.764-0.667
		s-0.251-0.563-0.251-0.891c0-0.361,0.103-0.699,0.308-1.013s0.504-0.553,0.898-0.715s0.832-0.244,1.313-0.244
		c0.531,0,0.999,0.085,1.404,0.256s0.717,0.422,0.935,0.754s0.335,0.708,0.352,1.128l-0.908,0.068
		c-0.049-0.453-0.214-0.794-0.496-1.025s-0.697-0.347-1.248-0.347c-0.573,0-0.99,0.105-1.252,0.315s-0.393,0.463-0.393,0.759
		c0,0.257,0.093,0.469,0.278,0.635c0.182,0.166,0.658,0.336,1.428,0.51s1.298,0.326,1.584,0.457c0.417,0.192,0.724,0.436,0.923,0.73
		s0.298,0.634,0.298,1.018c0,0.381-0.109,0.74-0.327,1.077s-0.531,0.599-0.94,0.786s-0.868,0.281-1.379,0.281
		c-0.648,0-1.19-0.094-1.628-0.283s-0.781-0.473-1.03-0.852S3.528,267.487,3.515,267.009z"/>
	<path d="M13.778,267.409l0.864,0.112c-0.094,0.596-0.336,1.062-0.725,1.399s-0.867,0.505-1.433,0.505
		c-0.709,0-1.28-0.232-1.711-0.696s-0.647-1.129-0.647-1.995c0-0.56,0.093-1.05,0.278-1.47s0.468-0.735,0.847-0.945
		s0.792-0.315,1.238-0.315c0.563,0,1.024,0.143,1.382,0.427s0.587,0.689,0.688,1.213l-0.854,0.132
		c-0.082-0.348-0.226-0.61-0.432-0.786s-0.457-0.264-0.75-0.264c-0.443,0-0.802,0.159-1.079,0.476s-0.415,0.819-0.415,1.506
		c0,0.697,0.133,1.203,0.4,1.519s0.615,0.474,1.045,0.474c0.345,0,0.633-0.106,0.864-0.317S13.716,267.849,13.778,267.409z"/>
	<path d="M18.778,268.669c-0.326,0.277-0.639,0.472-0.94,0.586s-0.624,0.171-0.969,0.171c-0.57,0-1.007-0.139-1.313-0.417
		s-0.459-0.634-0.459-1.067c0-0.254,0.058-0.486,0.173-0.696s0.267-0.378,0.454-0.505s0.398-0.223,0.632-0.288
		c0.172-0.045,0.433-0.089,0.781-0.132c0.709-0.084,1.232-0.186,1.567-0.303c0.003-0.121,0.005-0.197,0.005-0.229
		c0-0.358-0.083-0.61-0.249-0.757c-0.225-0.199-0.558-0.298-1.001-0.298c-0.414,0-0.719,0.072-0.916,0.217s-0.343,0.401-0.437,0.769
		l-0.859-0.117c0.078-0.368,0.207-0.665,0.386-0.891s0.438-0.4,0.776-0.522s0.731-0.183,1.177-0.183
		c0.443,0,0.802,0.052,1.079,0.156s0.48,0.235,0.61,0.393s0.221,0.357,0.273,0.598c0.029,0.15,0.044,0.42,0.044,0.811v1.172
		c0,0.817,0.019,1.334,0.056,1.55s0.111,0.424,0.222,0.623h-0.918C18.863,269.126,18.804,268.913,18.778,268.669z M18.705,266.706
		c-0.319,0.13-0.797,0.241-1.436,0.332c-0.361,0.052-0.617,0.111-0.767,0.176s-0.265,0.16-0.347,0.286s-0.122,0.265-0.122,0.417
		c0,0.234,0.089,0.43,0.266,0.586s0.437,0.234,0.779,0.234c0.338,0,0.64-0.074,0.903-0.222s0.458-0.351,0.581-0.608
		c0.094-0.199,0.142-0.492,0.142-0.879V266.706z"/>
	<path d="M21.166,269.309v-4.502H20.39v-0.684h0.776v-0.552c0-0.348,0.031-0.607,0.093-0.776c0.084-0.228,0.233-0.413,0.447-0.554
		s0.512-0.212,0.896-0.212c0.248,0,0.521,0.029,0.82,0.088l-0.132,0.767c-0.182-0.033-0.355-0.049-0.518-0.049
		c-0.267,0-0.456,0.057-0.566,0.171s-0.166,0.327-0.166,0.64v0.479h1.011v0.684H22.04v4.502H21.166z"/>
	<path d="M22.924,271.296v-0.635h5.825v0.635H22.924z"/>
	<path d="M28.622,269.309l2.749-7.158h1.021l2.93,7.158h-1.079l-0.835-2.168h-2.993l-0.786,2.168H28.622z M30.688,266.369h2.427
		l-0.747-1.982c-0.228-0.602-0.397-1.097-0.508-1.484c-0.091,0.459-0.22,0.915-0.386,1.367L30.688,266.369z"/>
	<path d="M35.155,271.296v-0.635h5.825v0.635H35.155z"/>
	<path d="M41.288,267.419l0.879-0.117c0.101,0.498,0.272,0.857,0.515,1.077s0.538,0.33,0.886,0.33c0.414,0,0.763-0.143,1.047-0.43
		s0.427-0.641,0.427-1.064c0-0.404-0.132-0.736-0.396-0.999s-0.599-0.393-1.006-0.393c-0.166,0-0.373,0.033-0.62,0.098l0.098-0.771
		c0.059,0.006,0.106,0.01,0.142,0.01c0.375,0,0.711-0.098,1.011-0.293s0.449-0.497,0.449-0.903c0-0.322-0.109-0.589-0.327-0.801
		s-0.5-0.317-0.845-0.317c-0.342,0-0.626,0.107-0.854,0.322s-0.375,0.537-0.439,0.967l-0.879-0.156
		c0.107-0.589,0.352-1.046,0.732-1.37s0.854-0.486,1.421-0.486c0.391,0,0.75,0.084,1.079,0.251s0.58,0.396,0.754,0.686
		s0.261,0.597,0.261,0.923c0,0.309-0.083,0.591-0.249,0.845s-0.412,0.456-0.737,0.605c0.423,0.098,0.752,0.3,0.986,0.608
		s0.352,0.692,0.352,1.155c0,0.625-0.228,1.155-0.684,1.589s-1.032,0.652-1.729,0.652c-0.628,0-1.15-0.187-1.565-0.562
		S41.347,268.015,41.288,267.419z"/>
</g>
<g>
	<rect x="3.065" y="158.227" fill="none" width="52" height="19.334"/>
	<path d="M3.515,163.086l0.894-0.078c0.042,0.358,0.141,0.652,0.295,0.881s0.395,0.415,0.72,0.557s0.692,0.212,1.099,0.212
		c0.361,0,0.68-0.054,0.957-0.161s0.482-0.255,0.618-0.442s0.203-0.392,0.203-0.613c0-0.225-0.065-0.421-0.195-0.588
		s-0.345-0.309-0.645-0.422c-0.192-0.075-0.617-0.191-1.274-0.349s-1.118-0.307-1.382-0.447c-0.342-0.179-0.597-0.401-0.764-0.667
		s-0.251-0.563-0.251-0.891c0-0.361,0.103-0.699,0.308-1.013s0.504-0.553,0.898-0.715s0.832-0.244,1.313-0.244
		c0.531,0,0.999,0.085,1.404,0.256s0.717,0.422,0.935,0.754s0.335,0.708,0.352,1.128l-0.908,0.068
		c-0.049-0.453-0.214-0.794-0.496-1.025s-0.697-0.347-1.248-0.347c-0.573,0-0.99,0.105-1.252,0.315s-0.393,0.463-0.393,0.759
		c0,0.257,0.093,0.469,0.278,0.635c0.182,0.166,0.658,0.336,1.428,0.51s1.298,0.326,1.584,0.457c0.417,0.192,0.724,0.436,0.923,0.73
		s0.298,0.634,0.298,1.018c0,0.381-0.109,0.74-0.327,1.077s-0.531,0.599-0.94,0.786s-0.868,0.281-1.379,0.281
		c-0.648,0-1.19-0.094-1.628-0.283s-0.781-0.473-1.03-0.852S3.528,163.565,3.515,163.086z"/>
	<path d="M13.778,163.487l0.864,0.112c-0.094,0.596-0.336,1.062-0.725,1.399s-0.867,0.505-1.433,0.505
		c-0.709,0-1.28-0.232-1.711-0.696s-0.647-1.129-0.647-1.995c0-0.56,0.093-1.05,0.278-1.47s0.468-0.735,0.847-0.945
		s0.792-0.315,1.238-0.315c0.563,0,1.024,0.143,1.382,0.427s0.587,0.689,0.688,1.213l-0.854,0.132
		c-0.082-0.348-0.226-0.61-0.432-0.786s-0.457-0.264-0.75-0.264c-0.443,0-0.802,0.159-1.079,0.476s-0.415,0.819-0.415,1.506
		c0,0.697,0.133,1.203,0.4,1.519s0.615,0.474,1.045,0.474c0.345,0,0.633-0.106,0.864-0.317S13.716,163.926,13.778,163.487z"/>
	<path d="M18.778,164.747c-0.326,0.277-0.639,0.472-0.94,0.586s-0.624,0.171-0.969,0.171c-0.57,0-1.007-0.139-1.313-0.417
		s-0.459-0.634-0.459-1.067c0-0.254,0.058-0.486,0.173-0.696s0.267-0.378,0.454-0.505s0.398-0.223,0.632-0.288
		c0.172-0.045,0.433-0.089,0.781-0.132c0.709-0.084,1.232-0.186,1.567-0.303c0.003-0.121,0.005-0.197,0.005-0.229
		c0-0.358-0.083-0.61-0.249-0.757c-0.225-0.199-0.558-0.298-1.001-0.298c-0.414,0-0.719,0.072-0.916,0.217s-0.343,0.401-0.437,0.769
		l-0.859-0.117c0.078-0.368,0.207-0.665,0.386-0.891s0.438-0.4,0.776-0.522s0.731-0.183,1.177-0.183
		c0.443,0,0.802,0.052,1.079,0.156s0.48,0.235,0.61,0.393s0.221,0.357,0.273,0.598c0.029,0.15,0.044,0.42,0.044,0.811v1.172
		c0,0.817,0.019,1.334,0.056,1.55s0.111,0.424,0.222,0.623h-0.918C18.863,165.204,18.804,164.991,18.778,164.747z M18.705,162.784
		c-0.319,0.13-0.797,0.241-1.436,0.332c-0.361,0.052-0.617,0.111-0.767,0.176s-0.265,0.16-0.347,0.286s-0.122,0.265-0.122,0.417
		c0,0.234,0.089,0.43,0.266,0.586s0.437,0.234,0.779,0.234c0.338,0,0.64-0.074,0.903-0.222s0.458-0.351,0.581-0.608
		c0.094-0.199,0.142-0.492,0.142-0.879V162.784z"/>
	<path d="M21.166,165.386v-4.502H20.39v-0.684h0.776v-0.552c0-0.348,0.031-0.607,0.093-0.776c0.084-0.228,0.233-0.413,0.447-0.554
		s0.512-0.212,0.896-0.212c0.248,0,0.521,0.029,0.82,0.088l-0.132,0.767c-0.182-0.033-0.355-0.049-0.518-0.049
		c-0.267,0-0.456,0.057-0.566,0.171s-0.166,0.327-0.166,0.64v0.479h1.011v0.684H22.04v4.502H21.166z"/>
	<path d="M22.924,167.374v-0.635h5.825v0.635H22.924z"/>
	<path d="M28.622,165.386l2.749-7.158h1.021l2.93,7.158h-1.079l-0.835-2.168h-2.993l-0.786,2.168H28.622z M30.688,162.447h2.427
		l-0.747-1.982c-0.228-0.602-0.397-1.097-0.508-1.484c-0.091,0.459-0.22,0.915-0.386,1.367L30.688,162.447z"/>
	<path d="M35.155,167.374v-0.635h5.825v0.635H35.155z"/>
	<path d="M45.902,164.542v0.845h-4.731c-0.006-0.211,0.028-0.415,0.103-0.61c0.121-0.322,0.313-0.64,0.579-0.952
		s0.648-0.674,1.15-1.084c0.778-0.638,1.304-1.144,1.577-1.516s0.41-0.725,0.41-1.057c0-0.348-0.125-0.642-0.374-0.881
		s-0.574-0.359-0.974-0.359c-0.423,0-0.762,0.127-1.016,0.381s-0.382,0.605-0.386,1.055l-0.903-0.093
		c0.062-0.674,0.294-1.188,0.698-1.541s0.946-0.53,1.626-0.53c0.687,0,1.23,0.19,1.631,0.571s0.601,0.853,0.601,1.416
		c0,0.287-0.059,0.568-0.176,0.845s-0.312,0.568-0.583,0.874s-0.724,0.726-1.355,1.26c-0.527,0.443-0.866,0.743-1.016,0.901
		s-0.273,0.316-0.371,0.476H45.902z"/>
</g>
<g>
	<rect x="3.065" y="51.895" fill="none" width="43.768" height="19.334"/>
	<path d="M3.515,56.754l0.894-0.078c0.042,0.358,0.141,0.652,0.295,0.881s0.395,0.415,0.72,0.557s0.692,0.212,1.099,0.212
		c0.361,0,0.68-0.054,0.957-0.161s0.482-0.255,0.618-0.442S8.3,57.332,8.3,57.111c0-0.225-0.065-0.421-0.195-0.588
		S7.759,56.214,7.46,56.1c-0.192-0.075-0.617-0.191-1.274-0.349s-1.118-0.307-1.382-0.447c-0.342-0.179-0.597-0.401-0.764-0.667
		s-0.251-0.563-0.251-0.891c0-0.361,0.103-0.699,0.308-1.013s0.504-0.553,0.898-0.715s0.832-0.244,1.313-0.244
		c0.531,0,0.999,0.085,1.404,0.256s0.717,0.422,0.935,0.754s0.335,0.708,0.352,1.128L8.09,53.981
		c-0.049-0.453-0.214-0.794-0.496-1.025s-0.697-0.347-1.248-0.347c-0.573,0-0.99,0.105-1.252,0.315s-0.393,0.463-0.393,0.759
		c0,0.257,0.093,0.469,0.278,0.635c0.182,0.166,0.658,0.336,1.428,0.51s1.298,0.326,1.584,0.457c0.417,0.192,0.724,0.436,0.923,0.73
		s0.298,0.634,0.298,1.018c0,0.381-0.109,0.74-0.327,1.077s-0.531,0.599-0.94,0.786s-0.868,0.281-1.379,0.281
		c-0.648,0-1.19-0.094-1.628-0.283s-0.781-0.473-1.03-0.852S3.528,57.233,3.515,56.754z"/>
	<path d="M13.778,57.155l0.864,0.112c-0.094,0.596-0.336,1.062-0.725,1.399s-0.867,0.505-1.433,0.505
		c-0.709,0-1.28-0.232-1.711-0.696s-0.647-1.129-0.647-1.995c0-0.56,0.093-1.05,0.278-1.47s0.468-0.735,0.847-0.945
		s0.792-0.315,1.238-0.315c0.563,0,1.024,0.143,1.382,0.427s0.587,0.689,0.688,1.213l-0.854,0.132
		c-0.082-0.348-0.226-0.61-0.432-0.786s-0.457-0.264-0.75-0.264c-0.443,0-0.802,0.159-1.079,0.476s-0.415,0.819-0.415,1.506
		c0,0.697,0.133,1.203,0.4,1.519s0.615,0.474,1.045,0.474c0.345,0,0.633-0.106,0.864-0.317S13.716,57.594,13.778,57.155z"/>
	<path d="M18.778,58.415c-0.326,0.277-0.639,0.472-0.94,0.586s-0.624,0.171-0.969,0.171c-0.57,0-1.007-0.139-1.313-0.417
		s-0.459-0.634-0.459-1.067c0-0.254,0.058-0.486,0.173-0.696s0.267-0.378,0.454-0.505s0.398-0.223,0.632-0.288
		c0.172-0.045,0.433-0.089,0.781-0.132c0.709-0.084,1.232-0.186,1.567-0.303c0.003-0.121,0.005-0.197,0.005-0.229
		c0-0.358-0.083-0.61-0.249-0.757c-0.225-0.199-0.558-0.298-1.001-0.298c-0.414,0-0.719,0.072-0.916,0.217s-0.343,0.401-0.437,0.769
		l-0.859-0.117c0.078-0.368,0.207-0.665,0.386-0.891s0.438-0.4,0.776-0.522s0.731-0.183,1.177-0.183
		c0.443,0,0.802,0.052,1.079,0.156s0.48,0.235,0.61,0.393s0.221,0.357,0.273,0.598c0.029,0.15,0.044,0.42,0.044,0.811v1.172
		c0,0.817,0.019,1.334,0.056,1.55s0.111,0.424,0.222,0.623h-0.918C18.863,58.872,18.804,58.659,18.778,58.415z M18.705,56.452
		c-0.319,0.13-0.797,0.241-1.436,0.332c-0.361,0.052-0.617,0.111-0.767,0.176s-0.265,0.16-0.347,0.286s-0.122,0.265-0.122,0.417
		c0,0.234,0.089,0.43,0.266,0.586s0.437,0.234,0.779,0.234c0.338,0,0.64-0.074,0.903-0.222s0.458-0.351,0.581-0.608
		c0.094-0.199,0.142-0.492,0.142-0.879V56.452z"/>
	<path d="M21.166,59.054v-4.502H20.39v-0.684h0.776v-0.552c0-0.348,0.031-0.607,0.093-0.776c0.084-0.228,0.233-0.413,0.447-0.554
		s0.512-0.212,0.896-0.212c0.248,0,0.521,0.029,0.82,0.088l-0.132,0.767c-0.182-0.033-0.355-0.049-0.518-0.049
		c-0.267,0-0.456,0.057-0.566,0.171s-0.166,0.327-0.166,0.64v0.479h1.011v0.684H22.04v4.502H21.166z"/>
	<path d="M22.924,61.042v-0.635h5.825v0.635H22.924z"/>
	<path d="M28.622,59.054l2.749-7.158h1.021l2.93,7.158h-1.079l-0.835-2.168h-2.993l-0.786,2.168H28.622z M30.688,56.115h2.427
		l-0.747-1.982c-0.228-0.602-0.397-1.097-0.508-1.484c-0.091,0.459-0.22,0.915-0.386,1.367L30.688,56.115z"/>
	<path d="M35.155,61.042v-0.635h5.825v0.635H35.155z"/>
	<path d="M44.594,59.054h-0.879v-5.601c-0.211,0.202-0.489,0.404-0.833,0.605s-0.652,0.353-0.925,0.454v-0.85
		c0.492-0.231,0.921-0.511,1.289-0.84s0.628-0.648,0.781-0.957h0.566V59.054z"/>
</g>
<g>
	<rect x="3.065" y="338.889" fill="none" width="52" height="19.334"/>
	<path d="M3.515,343.75l0.894-0.078c0.042,0.357,0.141,0.652,0.295,0.881c0.155,0.23,0.395,0.416,0.72,0.557
		c0.326,0.143,0.692,0.213,1.099,0.213c0.361,0,0.68-0.054,0.957-0.161s0.482-0.255,0.618-0.442
		c0.135-0.187,0.203-0.391,0.203-0.612c0-0.225-0.065-0.421-0.195-0.589c-0.13-0.167-0.345-0.309-0.645-0.422
		c-0.192-0.074-0.617-0.191-1.274-0.35c-0.658-0.157-1.118-0.307-1.382-0.446c-0.342-0.179-0.597-0.401-0.764-0.667
		c-0.167-0.265-0.251-0.563-0.251-0.891c0-0.361,0.103-0.699,0.308-1.014c0.205-0.313,0.504-0.553,0.898-0.715
		s0.832-0.244,1.313-0.244c0.531,0,0.999,0.086,1.404,0.256c0.405,0.172,0.717,0.423,0.935,0.755s0.335,0.708,0.352,1.128
		l-0.908,0.068c-0.049-0.453-0.214-0.795-0.496-1.025s-0.697-0.347-1.248-0.347c-0.573,0-0.99,0.104-1.252,0.315
		c-0.262,0.209-0.393,0.463-0.393,0.759c0,0.257,0.093,0.469,0.278,0.635c0.182,0.166,0.658,0.336,1.428,0.511
		c0.77,0.174,1.298,0.326,1.584,0.456c0.417,0.192,0.724,0.436,0.923,0.729c0.199,0.295,0.298,0.635,0.298,1.019
		c0,0.381-0.109,0.739-0.327,1.077c-0.218,0.336-0.531,0.599-0.94,0.785c-0.409,0.188-0.868,0.281-1.379,0.281
		c-0.648,0-1.19-0.094-1.628-0.283s-0.781-0.473-1.03-0.852C3.659,344.657,3.528,344.228,3.515,343.75z"/>
	<path d="M13.778,344.15l0.864,0.112c-0.094,0.596-0.336,1.062-0.725,1.399c-0.389,0.336-0.867,0.505-1.433,0.505
		c-0.709,0-1.28-0.231-1.711-0.696c-0.431-0.463-0.647-1.129-0.647-1.994c0-0.561,0.093-1.05,0.278-1.47s0.468-0.735,0.847-0.944
		c0.379-0.211,0.792-0.315,1.238-0.315c0.563,0,1.024,0.143,1.382,0.427c0.358,0.285,0.587,0.689,0.688,1.214l-0.854,0.132
		c-0.082-0.348-0.226-0.61-0.432-0.786s-0.457-0.264-0.75-0.264c-0.443,0-0.802,0.159-1.079,0.476
		c-0.277,0.318-0.415,0.82-0.415,1.507c0,0.696,0.133,1.202,0.4,1.519s0.615,0.474,1.045,0.474c0.345,0,0.633-0.106,0.864-0.317
		S13.716,344.589,13.778,344.15z"/>
	<path d="M18.778,345.41c-0.326,0.277-0.639,0.473-0.94,0.586s-0.624,0.171-0.969,0.171c-0.57,0-1.007-0.14-1.313-0.417
		c-0.306-0.279-0.459-0.635-0.459-1.067c0-0.254,0.058-0.485,0.173-0.696c0.116-0.209,0.267-0.378,0.454-0.505
		s0.398-0.224,0.632-0.288c0.172-0.045,0.433-0.09,0.781-0.132c0.709-0.085,1.232-0.186,1.567-0.303
		c0.003-0.12,0.005-0.196,0.005-0.229c0-0.357-0.083-0.61-0.249-0.757c-0.225-0.198-0.558-0.298-1.001-0.298
		c-0.414,0-0.719,0.072-0.916,0.217c-0.197,0.146-0.343,0.402-0.437,0.77l-0.859-0.117c0.078-0.367,0.207-0.665,0.386-0.891
		c0.179-0.227,0.438-0.4,0.776-0.523c0.338-0.121,0.731-0.183,1.177-0.183c0.443,0,0.802,0.052,1.079,0.156s0.48,0.235,0.61,0.394
		c0.13,0.157,0.221,0.357,0.273,0.598c0.029,0.15,0.044,0.42,0.044,0.811v1.172c0,0.816,0.019,1.334,0.056,1.551
		c0.038,0.216,0.111,0.424,0.222,0.622h-0.918C18.863,345.867,18.804,345.654,18.778,345.41z M18.705,343.447
		c-0.319,0.131-0.797,0.24-1.436,0.332c-0.361,0.053-0.617,0.111-0.767,0.176s-0.265,0.16-0.347,0.285
		c-0.082,0.126-0.122,0.266-0.122,0.418c0,0.234,0.089,0.43,0.266,0.586s0.437,0.234,0.779,0.234c0.338,0,0.64-0.074,0.903-0.223
		c0.264-0.147,0.458-0.35,0.581-0.607c0.094-0.199,0.142-0.492,0.142-0.879V343.447z"/>
	<path d="M21.166,346.049v-4.502H20.39v-0.684h0.776v-0.552c0-0.348,0.031-0.607,0.093-0.776c0.084-0.228,0.233-0.413,0.447-0.554
		c0.213-0.143,0.512-0.213,0.896-0.213c0.248,0,0.521,0.029,0.82,0.088l-0.132,0.767c-0.182-0.032-0.355-0.049-0.518-0.049
		c-0.267,0-0.456,0.058-0.566,0.171s-0.166,0.327-0.166,0.64v0.479h1.011v0.684H22.04v4.502H21.166z"/>
	<path d="M22.924,348.037v-0.635h5.825v0.635H22.924z"/>
	<path d="M28.622,346.049l2.749-7.158h1.021l2.93,7.158h-1.079l-0.835-2.168h-2.993l-0.786,2.168H28.622z M30.688,343.11h2.427
		l-0.747-1.982c-0.228-0.603-0.397-1.097-0.508-1.484c-0.091,0.459-0.22,0.915-0.386,1.367L30.688,343.11z"/>
	<path d="M35.155,348.037v-0.635h5.825v0.635H35.155z"/>
	<path d="M44.101,346.049v-1.714h-3.105v-0.806l3.267-4.639h0.718v4.639h0.967v0.806h-0.967v1.714H44.101z M44.101,343.53v-3.228
		l-2.241,3.228H44.101z"/>
</g>
<g>
	<g>
		<rect x="157.853" y="318.329" fill="none" width="52" height="19.334"/>
		<path d="M158.302,323.189l0.895-0.078c0.042,0.357,0.141,0.652,0.295,0.881c0.154,0.23,0.395,0.416,0.721,0.557
			c0.325,0.143,0.691,0.213,1.098,0.213c0.361,0,0.681-0.054,0.957-0.161c0.277-0.107,0.482-0.255,0.618-0.442
			c0.136-0.187,0.202-0.391,0.202-0.612c0-0.225-0.064-0.421-0.195-0.589c-0.13-0.167-0.345-0.309-0.645-0.422
			c-0.191-0.074-0.616-0.191-1.273-0.35c-0.658-0.157-1.119-0.307-1.383-0.446c-0.342-0.179-0.596-0.401-0.764-0.667
			c-0.168-0.265-0.252-0.563-0.252-0.891c0-0.361,0.104-0.699,0.309-1.014c0.205-0.313,0.504-0.553,0.898-0.715
			c0.394-0.162,0.831-0.244,1.313-0.244c0.531,0,0.999,0.086,1.404,0.256c0.405,0.172,0.717,0.423,0.936,0.755
			c0.218,0.332,0.335,0.708,0.352,1.128l-0.908,0.068c-0.049-0.453-0.215-0.795-0.496-1.025s-0.697-0.347-1.248-0.347
			c-0.572,0-0.99,0.104-1.252,0.315c-0.262,0.209-0.393,0.463-0.393,0.759c0,0.257,0.092,0.469,0.277,0.635
			c0.183,0.166,0.658,0.336,1.429,0.511c0.771,0.174,1.298,0.326,1.585,0.456c0.416,0.192,0.724,0.436,0.922,0.729
			c0.199,0.295,0.299,0.635,0.299,1.019c0,0.381-0.109,0.739-0.328,1.077c-0.218,0.336-0.531,0.599-0.939,0.785
			c-0.408,0.188-0.868,0.281-1.379,0.281c-0.648,0-1.191-0.094-1.629-0.283s-0.781-0.473-1.03-0.852
			C158.447,324.096,158.316,323.667,158.302,323.189z"/>
		<path d="M168.566,323.589l0.865,0.112c-0.095,0.596-0.336,1.062-0.726,1.399c-0.39,0.336-0.866,0.505-1.433,0.505
			c-0.71,0-1.281-0.231-1.712-0.696c-0.431-0.463-0.647-1.129-0.647-1.994c0-0.561,0.094-1.05,0.279-1.47s0.467-0.735,0.847-0.944
			c0.38-0.211,0.792-0.315,1.237-0.315c0.563,0,1.024,0.143,1.383,0.427c0.357,0.285,0.587,0.689,0.688,1.214l-0.854,0.132
			c-0.082-0.348-0.227-0.61-0.433-0.786s-0.456-0.264-0.749-0.264c-0.443,0-0.803,0.159-1.08,0.476
			c-0.276,0.318-0.414,0.82-0.414,1.507c0,0.696,0.133,1.202,0.4,1.519c0.267,0.316,0.615,0.474,1.045,0.474
			c0.345,0,0.633-0.106,0.863-0.317C168.358,324.355,168.504,324.029,168.566,323.589z"/>
		<path d="M173.566,324.849c-0.325,0.277-0.639,0.473-0.939,0.586s-0.624,0.171-0.969,0.171c-0.57,0-1.008-0.14-1.314-0.417
			c-0.306-0.279-0.459-0.635-0.459-1.067c0-0.254,0.059-0.485,0.174-0.696c0.115-0.209,0.268-0.378,0.454-0.505
			s0.397-0.224,0.632-0.288c0.173-0.045,0.434-0.09,0.781-0.132c0.71-0.085,1.232-0.186,1.568-0.303
			c0.003-0.12,0.004-0.196,0.004-0.229c0-0.357-0.082-0.61-0.248-0.757c-0.225-0.198-0.559-0.298-1.002-0.298
			c-0.413,0-0.719,0.072-0.915,0.217c-0.196,0.146-0.343,0.402-0.437,0.77l-0.859-0.117c0.078-0.367,0.206-0.665,0.385-0.891
			c0.18-0.227,0.438-0.4,0.777-0.523c0.338-0.121,0.73-0.183,1.176-0.183c0.443,0,0.803,0.052,1.08,0.156
			c0.276,0.104,0.479,0.235,0.609,0.394c0.131,0.157,0.222,0.357,0.273,0.598c0.029,0.15,0.045,0.42,0.045,0.811v1.172
			c0,0.816,0.018,1.334,0.056,1.551c0.038,0.216,0.111,0.424,0.222,0.622h-0.918C173.651,325.306,173.592,325.093,173.566,324.849z
			 M173.494,322.886c-0.319,0.131-0.798,0.24-1.436,0.332c-0.361,0.053-0.617,0.111-0.768,0.176
			c-0.149,0.064-0.265,0.16-0.346,0.285c-0.082,0.126-0.123,0.266-0.123,0.418c0,0.234,0.09,0.43,0.267,0.586
			s0.437,0.234,0.778,0.234c0.339,0,0.641-0.074,0.904-0.223c0.264-0.147,0.457-0.35,0.58-0.607
			c0.095-0.199,0.143-0.492,0.143-0.879V322.886z"/>
		<path d="M175.955,325.489v-4.502h-0.777v-0.684h0.777v-0.552c0-0.348,0.03-0.607,0.092-0.776c0.085-0.228,0.234-0.413,0.447-0.554
			c0.213-0.143,0.512-0.213,0.896-0.213c0.247,0,0.521,0.029,0.82,0.088l-0.133,0.767c-0.182-0.032-0.354-0.049-0.518-0.049
			c-0.267,0-0.455,0.058-0.566,0.171c-0.11,0.113-0.166,0.327-0.166,0.64v0.479h1.012v0.684h-1.012v4.502H175.955z"/>
		<path d="M177.712,327.476v-0.635h5.824v0.635H177.712z"/>
		<path d="M184.158,325.489v-7.158h2.686c0.547,0,0.984,0.072,1.315,0.218c0.331,0.145,0.589,0.367,0.776,0.668
			c0.188,0.302,0.281,0.617,0.281,0.945c0,0.307-0.084,0.594-0.25,0.864s-0.416,0.488-0.752,0.654
			c0.434,0.127,0.766,0.343,0.999,0.649s0.349,0.668,0.349,1.084c0,0.336-0.07,0.646-0.212,0.936
			c-0.142,0.287-0.316,0.51-0.524,0.666c-0.209,0.156-0.471,0.274-0.784,0.354c-0.313,0.08-0.699,0.12-1.155,0.12H184.158z
			 M185.105,321.338h1.547c0.42,0,0.722-0.028,0.904-0.083c0.24-0.072,0.422-0.19,0.544-0.356s0.183-0.374,0.183-0.625
			c0-0.237-0.057-0.446-0.17-0.628c-0.114-0.18-0.277-0.304-0.488-0.371c-0.212-0.066-0.575-0.1-1.09-0.1h-1.43V321.338z
			 M185.105,324.644h1.781c0.307,0,0.521-0.012,0.645-0.034c0.219-0.039,0.4-0.104,0.547-0.195s0.268-0.224,0.361-0.397
			c0.095-0.175,0.143-0.375,0.143-0.604c0-0.268-0.068-0.499-0.205-0.695c-0.137-0.197-0.326-0.336-0.569-0.416
			c-0.243-0.079-0.592-0.119-1.048-0.119h-1.654V324.644z"/>
		<path d="M189.943,327.476v-0.635h5.826v0.635H189.943z"/>
		<path d="M196.072,323.614l0.922-0.078c0.068,0.449,0.228,0.787,0.477,1.013c0.249,0.227,0.549,0.34,0.9,0.34
			c0.424,0,0.781-0.16,1.074-0.479s0.439-0.742,0.439-1.27c0-0.502-0.141-0.896-0.422-1.187s-0.65-0.435-1.105-0.435
			c-0.283,0-0.539,0.064-0.768,0.193c-0.228,0.128-0.406,0.295-0.537,0.5l-0.824-0.107l0.693-3.677h3.559v0.84h-2.855l-0.387,1.924
			c0.43-0.3,0.881-0.449,1.354-0.449c0.625,0,1.152,0.216,1.582,0.649s0.645,0.99,0.645,1.67c0,0.648-0.189,1.207-0.566,1.68
			c-0.459,0.58-1.086,0.869-1.881,0.869c-0.65,0-1.182-0.182-1.594-0.547S196.13,324.216,196.072,323.614z"/>
	</g>
	<g>
		<rect x="157.852" y="259.809" fill="none" width="52" height="19.334"/>
		<path d="M158.302,264.669l0.893-0.078c0.043,0.358,0.141,0.652,0.296,0.881s0.395,0.415,0.72,0.557
			c0.326,0.142,0.692,0.212,1.1,0.212c0.361,0,0.68-0.054,0.957-0.161c0.276-0.107,0.482-0.255,0.617-0.442s0.203-0.392,0.203-0.613
			c0-0.225-0.065-0.421-0.195-0.588c-0.131-0.167-0.346-0.309-0.645-0.422c-0.192-0.075-0.617-0.191-1.275-0.349
			c-0.657-0.158-1.117-0.307-1.381-0.447c-0.342-0.179-0.598-0.401-0.765-0.667s-0.251-0.563-0.251-0.891
			c0-0.361,0.102-0.699,0.307-1.013s0.505-0.553,0.898-0.715c0.395-0.163,0.832-0.244,1.314-0.244c0.53,0,0.998,0.085,1.403,0.256
			s0.717,0.422,0.935,0.754c0.219,0.332,0.336,0.708,0.352,1.128l-0.908,0.068c-0.049-0.453-0.213-0.794-0.495-1.025
			s-0.697-0.347-1.247-0.347c-0.573,0-0.99,0.105-1.253,0.315s-0.394,0.463-0.394,0.759c0,0.257,0.094,0.469,0.279,0.635
			c0.182,0.166,0.658,0.336,1.428,0.51s1.298,0.326,1.584,0.457c0.417,0.192,0.725,0.436,0.924,0.73
			c0.198,0.294,0.297,0.634,0.297,1.018c0,0.381-0.108,0.74-0.326,1.077c-0.219,0.337-0.531,0.599-0.94,0.786
			s-0.868,0.281-1.38,0.281c-0.647,0-1.189-0.094-1.628-0.283s-0.781-0.473-1.03-0.852S158.315,265.148,158.302,264.669z"/>
		<path d="M168.566,265.07l0.863,0.112c-0.094,0.596-0.336,1.062-0.725,1.399s-0.867,0.505-1.434,0.505
			c-0.709,0-1.279-0.232-1.711-0.696s-0.646-1.129-0.646-1.995c0-0.56,0.092-1.05,0.277-1.47s0.469-0.735,0.848-0.945
			s0.792-0.315,1.238-0.315c0.563,0,1.023,0.143,1.381,0.427c0.358,0.285,0.588,0.689,0.689,1.213l-0.855,0.132
			c-0.081-0.348-0.225-0.61-0.432-0.786s-0.457-0.264-0.75-0.264c-0.442,0-0.802,0.159-1.078,0.476
			c-0.277,0.317-0.416,0.819-0.416,1.506c0,0.697,0.134,1.203,0.4,1.519c0.268,0.316,0.615,0.474,1.045,0.474
			c0.346,0,0.634-0.106,0.865-0.317C168.357,265.835,168.503,265.509,168.566,265.07z"/>
		<path d="M173.566,266.33c-0.326,0.277-0.639,0.472-0.94,0.586s-0.624,0.171-0.97,0.171c-0.569,0-1.007-0.139-1.313-0.417
			c-0.307-0.278-0.459-0.634-0.459-1.067c0-0.254,0.057-0.486,0.173-0.696s0.267-0.378,0.454-0.505s0.398-0.223,0.633-0.288
			c0.172-0.045,0.433-0.089,0.781-0.132c0.709-0.084,1.231-0.186,1.566-0.303c0.004-0.121,0.006-0.197,0.006-0.229
			c0-0.358-0.084-0.61-0.25-0.757c-0.225-0.199-0.558-0.298-1-0.298c-0.414,0-0.719,0.072-0.916,0.217s-0.343,0.401-0.438,0.769
			l-0.859-0.117c0.078-0.368,0.207-0.665,0.387-0.891c0.179-0.226,0.438-0.4,0.775-0.522c0.339-0.122,0.731-0.183,1.178-0.183
			c0.442,0,0.802,0.052,1.078,0.156c0.277,0.104,0.48,0.235,0.611,0.393c0.13,0.158,0.221,0.357,0.273,0.598
			c0.029,0.15,0.043,0.42,0.043,0.811v1.172c0,0.817,0.02,1.334,0.057,1.55s0.111,0.424,0.223,0.623h-0.918
			C173.65,266.787,173.591,266.574,173.566,266.33z M173.492,264.367c-0.318,0.13-0.797,0.241-1.436,0.332
			c-0.361,0.052-0.616,0.111-0.766,0.176c-0.15,0.065-0.266,0.16-0.348,0.286c-0.081,0.125-0.121,0.265-0.121,0.417
			c0,0.234,0.088,0.43,0.266,0.586s0.438,0.234,0.779,0.234c0.338,0,0.639-0.074,0.902-0.222s0.458-0.351,0.582-0.608
			c0.094-0.199,0.141-0.492,0.141-0.879V264.367z"/>
		<path d="M175.953,266.969v-4.502h-0.775v-0.684h0.775v-0.552c0-0.348,0.031-0.607,0.094-0.776
			c0.084-0.228,0.232-0.413,0.446-0.554s0.512-0.212,0.896-0.212c0.248,0,0.521,0.029,0.82,0.088l-0.131,0.767
			c-0.183-0.033-0.355-0.049-0.518-0.049c-0.268,0-0.456,0.057-0.566,0.171c-0.111,0.114-0.166,0.327-0.166,0.64v0.479h1.01v0.684
			h-1.01v4.502H175.953z"/>
		<path d="M177.71,268.957v-0.635h5.826v0.635H177.71z"/>
		<path d="M184.156,266.969v-7.158h2.686c0.547,0,0.986,0.072,1.316,0.217s0.59,0.368,0.776,0.669s0.28,0.616,0.28,0.945
			c0,0.306-0.082,0.594-0.248,0.864s-0.417,0.488-0.752,0.654c0.433,0.127,0.766,0.343,0.998,0.649s0.35,0.667,0.35,1.084
			c0,0.335-0.071,0.647-0.213,0.935s-0.316,0.51-0.525,0.667c-0.208,0.156-0.469,0.274-0.783,0.354s-0.699,0.12-1.154,0.12H184.156z
			 M185.103,262.819h1.549c0.42,0,0.721-0.028,0.902-0.083c0.241-0.072,0.423-0.19,0.545-0.356s0.184-0.375,0.184-0.625
			c0-0.238-0.058-0.447-0.172-0.627c-0.113-0.181-0.276-0.304-0.488-0.371c-0.211-0.067-0.574-0.1-1.088-0.1h-1.432V262.819z
			 M185.103,266.125h1.783c0.306,0,0.521-0.011,0.645-0.034c0.218-0.039,0.4-0.104,0.547-0.195s0.267-0.224,0.361-0.398
			c0.094-0.174,0.141-0.375,0.141-0.603c0-0.267-0.068-0.499-0.205-0.696s-0.326-0.335-0.568-0.415s-0.592-0.12-1.047-0.12h-1.656
			V266.125z"/>
		<path d="M189.943,268.957v-0.635h5.824v0.635H189.943z"/>
		<path d="M198.888,266.969v-1.714h-3.105v-0.806l3.266-4.639h0.719v4.639h0.967v0.806h-0.967v1.714H198.888z M198.888,264.45
			v-3.228l-2.242,3.228H198.888z"/>
	</g>
	<g>
		<rect x="157.852" y="205.674" fill="none" width="52" height="19.334"/>
		<path d="M158.302,210.534l0.893-0.078c0.043,0.358,0.141,0.652,0.296,0.881s0.395,0.415,0.72,0.557
			c0.326,0.142,0.692,0.212,1.1,0.212c0.361,0,0.68-0.054,0.957-0.161c0.276-0.107,0.482-0.255,0.617-0.442s0.203-0.392,0.203-0.613
			c0-0.225-0.065-0.421-0.195-0.588c-0.131-0.167-0.346-0.309-0.645-0.422c-0.192-0.075-0.617-0.191-1.275-0.349
			c-0.657-0.158-1.117-0.307-1.381-0.447c-0.342-0.179-0.598-0.401-0.765-0.667s-0.251-0.563-0.251-0.891
			c0-0.361,0.102-0.699,0.307-1.013s0.505-0.553,0.898-0.715c0.395-0.163,0.832-0.244,1.314-0.244c0.53,0,0.998,0.085,1.403,0.256
			s0.717,0.422,0.935,0.754c0.219,0.332,0.336,0.708,0.352,1.128l-0.908,0.068c-0.049-0.453-0.213-0.794-0.495-1.025
			s-0.697-0.347-1.247-0.347c-0.573,0-0.99,0.105-1.253,0.315s-0.394,0.463-0.394,0.759c0,0.257,0.094,0.469,0.279,0.635
			c0.182,0.166,0.658,0.336,1.428,0.51s1.298,0.326,1.584,0.457c0.417,0.192,0.725,0.436,0.924,0.73
			c0.198,0.294,0.297,0.634,0.297,1.018c0,0.381-0.108,0.74-0.326,1.077c-0.219,0.337-0.531,0.599-0.94,0.786
			s-0.868,0.281-1.38,0.281c-0.647,0-1.189-0.094-1.628-0.283s-0.781-0.473-1.03-0.852S158.315,211.013,158.302,210.534z"/>
		<path d="M168.566,210.935l0.863,0.112c-0.094,0.596-0.336,1.062-0.725,1.399s-0.867,0.505-1.434,0.505
			c-0.709,0-1.279-0.232-1.711-0.696s-0.646-1.129-0.646-1.995c0-0.56,0.092-1.05,0.277-1.47s0.469-0.735,0.848-0.945
			s0.792-0.315,1.238-0.315c0.563,0,1.023,0.143,1.381,0.427c0.358,0.285,0.588,0.689,0.689,1.213l-0.855,0.132
			c-0.081-0.348-0.225-0.61-0.432-0.786s-0.457-0.264-0.75-0.264c-0.442,0-0.802,0.159-1.078,0.476
			c-0.277,0.317-0.416,0.819-0.416,1.506c0,0.697,0.134,1.203,0.4,1.519c0.268,0.316,0.615,0.474,1.045,0.474
			c0.346,0,0.634-0.106,0.865-0.317C168.357,211.7,168.503,211.374,168.566,210.935z"/>
		<path d="M173.566,212.194c-0.326,0.277-0.639,0.472-0.94,0.586s-0.624,0.171-0.97,0.171c-0.569,0-1.007-0.139-1.313-0.417
			c-0.307-0.278-0.459-0.634-0.459-1.067c0-0.254,0.057-0.486,0.173-0.696s0.267-0.378,0.454-0.505s0.398-0.223,0.633-0.288
			c0.172-0.045,0.433-0.089,0.781-0.132c0.709-0.084,1.231-0.186,1.566-0.303c0.004-0.121,0.006-0.197,0.006-0.229
			c0-0.358-0.084-0.61-0.25-0.757c-0.225-0.199-0.558-0.298-1-0.298c-0.414,0-0.719,0.072-0.916,0.217s-0.343,0.401-0.438,0.769
			l-0.859-0.117c0.078-0.368,0.207-0.665,0.387-0.891c0.179-0.226,0.438-0.4,0.775-0.522c0.339-0.122,0.731-0.183,1.178-0.183
			c0.442,0,0.802,0.052,1.078,0.156c0.277,0.104,0.48,0.235,0.611,0.393c0.13,0.158,0.221,0.357,0.273,0.598
			c0.029,0.15,0.043,0.42,0.043,0.811v1.172c0,0.817,0.02,1.334,0.057,1.55s0.111,0.424,0.223,0.623h-0.918
			C173.65,212.652,173.591,212.438,173.566,212.194z M173.492,210.231c-0.318,0.13-0.797,0.241-1.436,0.332
			c-0.361,0.052-0.616,0.111-0.766,0.176c-0.15,0.065-0.266,0.16-0.348,0.286c-0.081,0.125-0.121,0.265-0.121,0.417
			c0,0.234,0.088,0.43,0.266,0.586s0.438,0.234,0.779,0.234c0.338,0,0.639-0.074,0.902-0.222s0.458-0.351,0.582-0.608
			c0.094-0.199,0.141-0.492,0.141-0.879V210.231z"/>
		<path d="M175.953,212.834v-4.502h-0.775v-0.684h0.775v-0.552c0-0.348,0.031-0.607,0.094-0.776
			c0.084-0.228,0.232-0.413,0.446-0.554s0.512-0.212,0.896-0.212c0.248,0,0.521,0.029,0.82,0.088l-0.131,0.767
			c-0.183-0.033-0.355-0.049-0.518-0.049c-0.268,0-0.456,0.057-0.566,0.171c-0.111,0.114-0.166,0.327-0.166,0.64v0.479h1.01v0.684
			h-1.01v4.502H175.953z"/>
		<path d="M177.71,214.821v-0.635h5.826v0.635H177.71z"/>
		<path d="M184.156,212.834v-7.158h2.686c0.547,0,0.986,0.072,1.316,0.217s0.59,0.368,0.776,0.669s0.28,0.616,0.28,0.945
			c0,0.306-0.082,0.594-0.248,0.864s-0.417,0.488-0.752,0.654c0.433,0.127,0.766,0.343,0.998,0.649s0.35,0.667,0.35,1.084
			c0,0.335-0.071,0.647-0.213,0.935s-0.316,0.51-0.525,0.667c-0.208,0.156-0.469,0.274-0.783,0.354s-0.699,0.12-1.154,0.12H184.156z
			 M185.103,208.684h1.549c0.42,0,0.721-0.028,0.902-0.083c0.241-0.072,0.423-0.19,0.545-0.356s0.184-0.375,0.184-0.625
			c0-0.238-0.058-0.447-0.172-0.627c-0.113-0.181-0.276-0.304-0.488-0.371c-0.211-0.067-0.574-0.1-1.088-0.1h-1.432V208.684z
			 M185.103,211.989h1.783c0.306,0,0.521-0.011,0.645-0.034c0.218-0.039,0.4-0.104,0.547-0.195s0.267-0.224,0.361-0.398
			c0.094-0.174,0.141-0.375,0.141-0.603c0-0.267-0.068-0.499-0.205-0.696s-0.326-0.335-0.568-0.415s-0.592-0.12-1.047-0.12h-1.656
			V211.989z"/>
		<path d="M189.943,214.821v-0.635h5.824v0.635H189.943z"/>
		<path d="M196.076,210.944l0.879-0.117c0.101,0.498,0.271,0.857,0.515,1.077s0.538,0.33,0.886,0.33c0.414,0,0.764-0.143,1.048-0.43
			s0.427-0.641,0.427-1.064c0-0.404-0.131-0.736-0.395-0.999s-0.6-0.393-1.006-0.393c-0.166,0-0.373,0.033-0.621,0.098l0.098-0.771
			c0.059,0.006,0.106,0.01,0.143,0.01c0.374,0,0.711-0.098,1.01-0.293c0.3-0.195,0.449-0.497,0.449-0.903
			c0-0.322-0.108-0.589-0.326-0.801c-0.219-0.211-0.5-0.317-0.846-0.317c-0.342,0-0.626,0.107-0.854,0.322
			c-0.229,0.215-0.375,0.537-0.439,0.967l-0.879-0.156c0.107-0.589,0.352-1.046,0.732-1.37s0.854-0.486,1.42-0.486
			c0.391,0,0.751,0.084,1.08,0.251c0.328,0.167,0.58,0.396,0.754,0.686s0.262,0.597,0.262,0.923c0,0.309-0.084,0.591-0.25,0.845
			s-0.411,0.456-0.736,0.605c0.423,0.098,0.752,0.3,0.986,0.608s0.352,0.692,0.352,1.155c0,0.625-0.229,1.155-0.684,1.589
			c-0.456,0.435-1.032,0.652-1.729,0.652c-0.629,0-1.15-0.187-1.565-0.562S196.134,211.54,196.076,210.944z"/>
	</g>
	<g>
		<rect x="157.853" y="109.329" fill="none" width="52" height="19.334"/>
		<path d="M158.302,114.189l0.895-0.078c0.042,0.358,0.141,0.652,0.295,0.881s0.395,0.415,0.721,0.557
			c0.325,0.142,0.691,0.212,1.098,0.212c0.361,0,0.681-0.054,0.957-0.161c0.277-0.107,0.482-0.255,0.618-0.442
			s0.202-0.392,0.202-0.613c0-0.225-0.064-0.421-0.195-0.588c-0.13-0.167-0.345-0.309-0.645-0.422
			c-0.191-0.075-0.616-0.191-1.273-0.349c-0.658-0.158-1.119-0.307-1.383-0.447c-0.342-0.179-0.596-0.401-0.764-0.667
			s-0.252-0.563-0.252-0.891c0-0.361,0.104-0.699,0.309-1.013s0.504-0.553,0.898-0.715c0.394-0.163,0.831-0.244,1.313-0.244
			c0.531,0,0.999,0.085,1.404,0.256s0.717,0.422,0.936,0.754c0.218,0.332,0.335,0.708,0.352,1.128l-0.908,0.068
			c-0.049-0.453-0.215-0.794-0.496-1.025s-0.697-0.347-1.248-0.347c-0.572,0-0.99,0.105-1.252,0.315s-0.393,0.463-0.393,0.759
			c0,0.257,0.092,0.469,0.277,0.635c0.183,0.166,0.658,0.336,1.429,0.51s1.298,0.326,1.585,0.457
			c0.416,0.192,0.724,0.436,0.922,0.73c0.199,0.294,0.299,0.634,0.299,1.018c0,0.381-0.109,0.74-0.328,1.077
			c-0.218,0.337-0.531,0.599-0.939,0.786s-0.868,0.281-1.379,0.281c-0.648,0-1.191-0.094-1.629-0.283s-0.781-0.473-1.03-0.852
			S158.316,114.668,158.302,114.189z"/>
		<path d="M168.566,114.59l0.865,0.112c-0.095,0.596-0.336,1.062-0.726,1.399s-0.866,0.505-1.433,0.505
			c-0.71,0-1.281-0.232-1.712-0.696s-0.647-1.129-0.647-1.995c0-0.56,0.094-1.05,0.279-1.47s0.467-0.735,0.847-0.945
			s0.792-0.315,1.237-0.315c0.563,0,1.024,0.143,1.383,0.427c0.357,0.285,0.587,0.689,0.688,1.213l-0.854,0.132
			c-0.082-0.348-0.227-0.61-0.433-0.786s-0.456-0.264-0.749-0.264c-0.443,0-0.803,0.159-1.08,0.476
			c-0.276,0.317-0.414,0.819-0.414,1.506c0,0.697,0.133,1.203,0.4,1.519c0.267,0.316,0.615,0.474,1.045,0.474
			c0.345,0,0.633-0.106,0.863-0.317C168.358,115.355,168.504,115.029,168.566,114.59z"/>
		<path d="M173.566,115.85c-0.325,0.277-0.639,0.472-0.939,0.586s-0.624,0.171-0.969,0.171c-0.57,0-1.008-0.139-1.314-0.417
			c-0.306-0.278-0.459-0.634-0.459-1.067c0-0.254,0.059-0.486,0.174-0.696s0.268-0.378,0.454-0.505s0.397-0.223,0.632-0.288
			c0.173-0.045,0.434-0.089,0.781-0.132c0.71-0.084,1.232-0.186,1.568-0.303c0.003-0.121,0.004-0.197,0.004-0.229
			c0-0.358-0.082-0.61-0.248-0.757c-0.225-0.199-0.559-0.298-1.002-0.298c-0.413,0-0.719,0.072-0.915,0.217
			s-0.343,0.401-0.437,0.769l-0.859-0.117c0.078-0.368,0.206-0.665,0.385-0.891c0.18-0.226,0.438-0.4,0.777-0.522
			c0.338-0.122,0.73-0.183,1.176-0.183c0.443,0,0.803,0.052,1.08,0.156c0.276,0.104,0.479,0.235,0.609,0.393
			c0.131,0.158,0.222,0.357,0.273,0.598c0.029,0.15,0.045,0.42,0.045,0.811v1.172c0,0.817,0.018,1.334,0.056,1.55
			s0.111,0.424,0.222,0.623h-0.918C173.651,116.307,173.592,116.094,173.566,115.85z M173.494,113.887
			c-0.319,0.13-0.798,0.241-1.436,0.332c-0.361,0.052-0.617,0.111-0.768,0.176c-0.149,0.065-0.265,0.16-0.346,0.286
			c-0.082,0.125-0.123,0.265-0.123,0.417c0,0.234,0.09,0.43,0.267,0.586s0.437,0.234,0.778,0.234c0.339,0,0.641-0.074,0.904-0.222
			s0.457-0.351,0.58-0.608c0.095-0.199,0.143-0.492,0.143-0.879V113.887z"/>
		<path d="M175.955,116.489v-4.502h-0.777v-0.684h0.777v-0.552c0-0.348,0.03-0.607,0.092-0.776c0.085-0.228,0.234-0.413,0.447-0.554
			s0.512-0.212,0.896-0.212c0.247,0,0.521,0.029,0.82,0.088l-0.133,0.767c-0.182-0.033-0.354-0.049-0.518-0.049
			c-0.267,0-0.455,0.057-0.566,0.171c-0.11,0.114-0.166,0.327-0.166,0.64v0.479h1.012v0.684h-1.012v4.502H175.955z"/>
		<path d="M177.712,118.477v-0.635h5.824v0.635H177.712z"/>
		<path d="M184.158,116.489v-7.158h2.686c0.547,0,0.984,0.072,1.315,0.217s0.589,0.368,0.776,0.669s0.281,0.616,0.281,0.945
			c0,0.306-0.084,0.594-0.25,0.864s-0.416,0.488-0.752,0.654c0.434,0.127,0.766,0.343,0.999,0.649s0.349,0.667,0.349,1.084
			c0,0.335-0.07,0.647-0.212,0.935s-0.316,0.51-0.524,0.667c-0.209,0.156-0.471,0.274-0.784,0.354s-0.699,0.12-1.155,0.12H184.158z
			 M185.105,112.339h1.547c0.42,0,0.722-0.028,0.904-0.083c0.24-0.072,0.422-0.19,0.544-0.356s0.183-0.375,0.183-0.625
			c0-0.238-0.057-0.447-0.17-0.627c-0.114-0.181-0.277-0.304-0.488-0.371c-0.212-0.067-0.575-0.1-1.09-0.1h-1.43V112.339z
			 M185.105,115.645h1.781c0.307,0,0.521-0.011,0.645-0.034c0.219-0.039,0.4-0.104,0.547-0.195s0.268-0.224,0.361-0.398
			c0.095-0.174,0.143-0.375,0.143-0.603c0-0.267-0.068-0.499-0.205-0.696s-0.326-0.335-0.569-0.415s-0.592-0.12-1.048-0.12h-1.654
			V115.645z"/>
		<path d="M189.943,118.477v-0.635h5.826v0.635H189.943z"/>
		<path d="M200.691,115.645v0.845h-4.732c-0.006-0.211,0.028-0.415,0.104-0.61c0.12-0.322,0.313-0.64,0.578-0.952
			s0.648-0.674,1.15-1.084c0.777-0.638,1.303-1.144,1.576-1.516s0.41-0.725,0.41-1.057c0-0.348-0.124-0.642-0.373-0.881
			s-0.574-0.359-0.975-0.359c-0.423,0-0.762,0.127-1.016,0.381s-0.382,0.605-0.385,1.055l-0.904-0.093
			c0.063-0.674,0.295-1.188,0.699-1.541c0.403-0.353,0.945-0.53,1.625-0.53c0.688,0,1.23,0.19,1.631,0.571s0.602,0.853,0.602,1.416
			c0,0.287-0.059,0.568-0.176,0.845s-0.313,0.568-0.584,0.874s-0.724,0.726-1.355,1.26c-0.527,0.443-0.865,0.743-1.016,0.901
			c-0.149,0.158-0.273,0.316-0.371,0.476H200.691z"/>
	</g>
	<g>
		<rect x="157.853" y="16.432" fill="none" width="52" height="19.334"/>
		<path d="M158.302,21.292l0.895-0.078c0.042,0.358,0.141,0.652,0.295,0.881s0.395,0.415,0.721,0.557
			c0.325,0.142,0.691,0.212,1.098,0.212c0.361,0,0.681-0.054,0.957-0.161c0.277-0.107,0.482-0.255,0.618-0.442
			s0.202-0.392,0.202-0.613c0-0.225-0.064-0.421-0.195-0.588c-0.13-0.167-0.345-0.309-0.645-0.422
			c-0.191-0.075-0.616-0.191-1.273-0.349c-0.658-0.158-1.119-0.307-1.383-0.447c-0.342-0.179-0.596-0.401-0.764-0.667
			s-0.252-0.563-0.252-0.891c0-0.361,0.104-0.699,0.309-1.013s0.504-0.553,0.898-0.715c0.394-0.163,0.831-0.244,1.313-0.244
			c0.531,0,0.999,0.085,1.404,0.256s0.717,0.422,0.936,0.754c0.218,0.332,0.335,0.708,0.352,1.128l-0.908,0.068
			c-0.049-0.453-0.215-0.794-0.496-1.025s-0.697-0.347-1.248-0.347c-0.572,0-0.99,0.105-1.252,0.315s-0.393,0.463-0.393,0.759
			c0,0.257,0.092,0.469,0.277,0.635c0.183,0.166,0.658,0.336,1.429,0.51s1.298,0.326,1.585,0.457
			c0.416,0.192,0.724,0.436,0.922,0.73c0.199,0.294,0.299,0.634,0.299,1.018c0,0.381-0.109,0.74-0.328,1.077
			c-0.218,0.337-0.531,0.599-0.939,0.786s-0.868,0.281-1.379,0.281c-0.648,0-1.191-0.094-1.629-0.283s-0.781-0.473-1.03-0.852
			S158.316,21.771,158.302,21.292z"/>
		<path d="M168.566,21.693l0.865,0.112c-0.095,0.596-0.336,1.062-0.726,1.399s-0.866,0.505-1.433,0.505
			c-0.71,0-1.281-0.232-1.712-0.696s-0.647-1.129-0.647-1.995c0-0.56,0.094-1.05,0.279-1.47s0.467-0.735,0.847-0.945
			s0.792-0.315,1.237-0.315c0.563,0,1.024,0.143,1.383,0.427c0.357,0.285,0.587,0.689,0.688,1.213l-0.854,0.132
			c-0.082-0.348-0.227-0.61-0.433-0.786s-0.456-0.264-0.749-0.264c-0.443,0-0.803,0.159-1.08,0.476
			c-0.276,0.317-0.414,0.819-0.414,1.506c0,0.697,0.133,1.203,0.4,1.519c0.267,0.316,0.615,0.474,1.045,0.474
			c0.345,0,0.633-0.106,0.863-0.317C168.358,22.458,168.504,22.132,168.566,21.693z"/>
		<path d="M173.566,22.953c-0.325,0.277-0.639,0.472-0.939,0.586s-0.624,0.171-0.969,0.171c-0.57,0-1.008-0.139-1.314-0.417
			c-0.306-0.278-0.459-0.634-0.459-1.067c0-0.254,0.059-0.486,0.174-0.696s0.268-0.378,0.454-0.505s0.397-0.223,0.632-0.288
			c0.173-0.045,0.434-0.089,0.781-0.132c0.71-0.084,1.232-0.186,1.568-0.303c0.003-0.121,0.004-0.197,0.004-0.229
			c0-0.358-0.082-0.61-0.248-0.757c-0.225-0.199-0.559-0.298-1.002-0.298c-0.413,0-0.719,0.072-0.915,0.217
			s-0.343,0.401-0.437,0.769l-0.859-0.117c0.078-0.368,0.206-0.665,0.385-0.891c0.18-0.226,0.438-0.4,0.777-0.522
			c0.338-0.122,0.73-0.183,1.176-0.183c0.443,0,0.803,0.052,1.08,0.156c0.276,0.104,0.479,0.235,0.609,0.393
			c0.131,0.158,0.222,0.357,0.273,0.598c0.029,0.15,0.045,0.42,0.045,0.811v1.172c0,0.817,0.018,1.334,0.056,1.55
			s0.111,0.424,0.222,0.623h-0.918C173.651,23.41,173.592,23.197,173.566,22.953z M173.494,20.99
			c-0.319,0.13-0.798,0.241-1.436,0.332c-0.361,0.052-0.617,0.111-0.768,0.176c-0.149,0.065-0.265,0.16-0.346,0.286
			c-0.082,0.125-0.123,0.265-0.123,0.417c0,0.234,0.09,0.43,0.267,0.586s0.437,0.234,0.778,0.234c0.339,0,0.641-0.074,0.904-0.222
			s0.457-0.351,0.58-0.608c0.095-0.199,0.143-0.492,0.143-0.879V20.99z"/>
		<path d="M175.955,23.592V19.09h-0.777v-0.684h0.777v-0.552c0-0.348,0.03-0.607,0.092-0.776c0.085-0.228,0.234-0.413,0.447-0.554
			s0.512-0.212,0.896-0.212c0.247,0,0.521,0.029,0.82,0.088l-0.133,0.767c-0.182-0.033-0.354-0.049-0.518-0.049
			c-0.267,0-0.455,0.057-0.566,0.171c-0.11,0.114-0.166,0.327-0.166,0.64v0.479h1.012v0.684h-1.012v4.502H175.955z"/>
		<path d="M177.712,25.58v-0.635h5.824v0.635H177.712z"/>
		<path d="M184.158,23.592v-7.158h2.686c0.547,0,0.984,0.072,1.315,0.217s0.589,0.368,0.776,0.669s0.281,0.616,0.281,0.945
			c0,0.306-0.084,0.594-0.25,0.864s-0.416,0.488-0.752,0.654c0.434,0.127,0.766,0.343,0.999,0.649s0.349,0.667,0.349,1.084
			c0,0.335-0.07,0.647-0.212,0.935s-0.316,0.51-0.524,0.667c-0.209,0.156-0.471,0.274-0.784,0.354s-0.699,0.12-1.155,0.12H184.158z
			 M185.105,19.442h1.547c0.42,0,0.722-0.028,0.904-0.083c0.24-0.072,0.422-0.19,0.544-0.356s0.183-0.375,0.183-0.625
			c0-0.238-0.057-0.447-0.17-0.627c-0.114-0.181-0.277-0.304-0.488-0.371c-0.212-0.067-0.575-0.1-1.09-0.1h-1.43V19.442z
			 M185.105,22.748h1.781c0.307,0,0.521-0.011,0.645-0.034c0.219-0.039,0.4-0.104,0.547-0.195s0.268-0.224,0.361-0.398
			c0.095-0.174,0.143-0.375,0.143-0.603c0-0.267-0.068-0.499-0.205-0.696s-0.326-0.335-0.569-0.415s-0.592-0.12-1.048-0.12h-1.654
			V22.748z"/>
		<path d="M189.943,25.58v-0.635h5.826v0.635H189.943z"/>
		<path d="M199.382,23.592h-0.879v-5.601c-0.212,0.202-0.49,0.404-0.833,0.605s-0.651,0.353-0.925,0.454v-0.85
			c0.491-0.231,0.921-0.511,1.289-0.84c0.367-0.329,0.628-0.648,0.781-0.957h0.566V23.592z"/>
	</g>
</g>
</svg>
